<svg xmlns="http://www.w3.org/2000/svg" width="20" height="20" viewBox="0 0 20 20"><g><g><path fill="#fff" d="M18.992 13.944v4.508a.563.563 0 0 1-.562.563H1.576a.563.563 0 0 1-.562-.563v-4.508a.563.563 0 1 1 1.123 0v3.944H17.87v-3.944a.563.563 0 1 1 1.123 0zm-13.33-3.49a.56.56 0 0 1 0-.796.57.57 0 0 1 .801 0l2.964 2.93V1.548c0-.311.254-.563.568-.563.313 0 .567.252.567.563v11.04l2.964-2.93a.57.57 0 0 1 .802 0 .56.56 0 0 1 0 .797l-3.932 3.887a.574.574 0 0 1-.803 0z"/><path fill="none" stroke="#fff" stroke-miterlimit="50" d="M18.992 13.944v4.508a.563.563 0 0 1-.562.563H1.576a.563.563 0 0 1-.562-.563v-4.508a.563.563 0 1 1 1.123 0v3.944H17.87v-3.944a.563.563 0 1 1 1.123 0zm-13.33-3.49a.56.56 0 0 1 0-.796.57.57 0 0 1 .801 0l2.964 2.93V1.548c0-.311.254-.563.568-.563.313 0 .567.252.567.563v11.04l2.964-2.93a.57.57 0 0 1 .802 0 .56.56 0 0 1 0 .797l-3.932 3.887a.574.574 0 0 1-.803 0z"/></g></g></svg>