<svg xmlns="http://www.w3.org/2000/svg" width="16" height="22" viewBox="0 0 16 22"><g><g><path fill="#fff" d="M15.996 7.97c0 5.446-7.156 13.44-7.46 13.778a.722.722 0 0 1-1.072 0C7.16 21.41.004 13.416.004 7.97.003 3.582 3.59.01 8 .01c4.41 0 7.996 3.57 7.996 7.959zm-1.44 0c0-3.598-2.94-6.525-6.556-6.525-3.615 0-6.557 2.927-6.557 6.525 0 3.737 4.148 9.355 6.557 12.202 2.409-2.849 6.556-8.465 6.556-12.202zm-2.533 0c0 2.208-1.805 4.004-4.023 4.004-2.219 0-4.023-1.796-4.023-4.004C3.977 5.762 5.78 3.966 8 3.966c2.218 0 4.023 1.796 4.023 4.004zm-1.44 0A2.58 2.58 0 0 0 8 5.399a2.58 2.58 0 0 0-2.583 2.57A2.58 2.58 0 0 0 8 10.542a2.58 2.58 0 0 0 2.583-2.571z"/></g></g></svg>