<svg xmlns="http://www.w3.org/2000/svg" width="20" height="20" viewBox="0 0 20 20"><defs><clipPath id="vx4la"><path fill="#fff" d="M20 13.842v6.157h-.714C8.634 19.999 0 11.365 0 .713v-.714h6.157l2.5 5-1.75 3.528a.715.715 0 0 0 0 .715 15.146 15.146 0 0 0 3.857 3.864.714.714 0 0 0 .714 0L15 11.342zm-1.429.936L15 12.992l-2.857 1.428A2.143 2.143 0 0 1 10 14.285a16.469 16.469 0 0 1-4.236-4.286 2.143 2.143 0 0 1-.136-2.143L7.057 5 5.27 1.427H1.428c.366 9.313 7.831 16.778 17.143 17.144z"/></clipPath></defs><g><g><path fill="#fff" d="M20 13.842v6.157h-.714C8.634 19.999 0 11.365 0 .713v-.714h6.157l2.5 5-1.75 3.528a.715.715 0 0 0 0 .715 15.146 15.146 0 0 0 3.857 3.864.714.714 0 0 0 .714 0L15 11.342zm-1.429.936L15 12.992l-2.857 1.428A2.143 2.143 0 0 1 10 14.285a16.469 16.469 0 0 1-4.236-4.286 2.143 2.143 0 0 1-.136-2.143L7.057 5 5.27 1.427H1.428c.366 9.313 7.831 16.778 17.143 17.144z"/><path fill="none" stroke="#fff" stroke-miterlimit="50" stroke-width="2" d="M20 13.842v6.157h-.714C8.634 19.999 0 11.365 0 .713v-.714h6.157l2.5 5-1.75 3.528a.715.715 0 0 0 0 .715 15.146 15.146 0 0 0 3.857 3.864.714.714 0 0 0 .714 0L15 11.342zm-1.429.936L15 12.992l-2.857 1.428A2.143 2.143 0 0 1 10 14.285a16.469 16.469 0 0 1-4.236-4.286 2.143 2.143 0 0 1-.136-2.143L7.057 5 5.27 1.427H1.428c.366 9.313 7.831 16.778 17.143 17.144z" clip-path="url(&quot;#vx4la&quot;)"/></g></g></svg>